<svg width="409" height="677" viewBox="0 0 409 677" fill="none" xmlns="http://www.w3.org/2000/svg">
<g clip-path="url(#clip0_2439_128)">
<path d="M272.579 516.075H135.307C121.338 516.075 107.876 510.204 98.371 499.968L97.464 498.992C88.778 489.638 83.995 477.458 83.995 464.694V451.503C83.995 407.149 69.376 363.883 42.83 329.673C14.242 292.83 -0.952017 246.772 0.0479831 199.984C2.43198 88.463 95.172 -1.24995 206.801 0.0130516C260.92 0.622052 311.702 22.159 349.794 60.6561C387.915 99.1831 408.909 150.252 408.909 204.455C408.909 250.477 393.974 293.937 365.72 330.136C338.161 365.444 322.983 409.429 322.983 453.989V465.671C322.983 477.695 318.674 489.344 310.849 498.473C301.261 509.659 287.312 516.075 272.579 516.075ZM204.486 15.0001C102.008 15.0001 17.237 97.682 15.045 200.304C14.105 244.294 27.811 285.849 54.682 320.477C83.258 357.304 98.996 403.836 98.996 451.502V464.693C98.996 473.659 102.356 482.214 108.456 488.784L109.363 489.76C116.039 496.95 125.495 501.074 135.307 501.074H272.579C282.927 501.074 292.725 496.568 299.46 488.71C304.956 482.298 307.983 474.115 307.983 465.669V453.987C307.983 406.099 324.288 358.836 353.896 320.904C380.073 287.366 393.91 247.098 393.91 204.452C393.91 101.155 309.898 16.1721 206.634 15.0101C205.921 15.0021 205.199 14.9981 204.488 14.9981L204.486 15.0001Z" fill="#E5EAFA"/>
<path d="M273.867 508.574H135.041C123.995 508.574 115.041 517.528 115.041 528.574C115.041 539.62 123.995 548.574 135.041 548.574H273.867C284.913 548.574 293.867 539.62 293.867 528.574C293.867 517.528 284.913 508.574 273.867 508.574Z" fill="#84714F"/>
<path d="M273.867 556.074H135.041C119.877 556.074 107.541 543.738 107.541 528.574C107.541 513.41 119.877 501.074 135.041 501.074H273.867C289.031 501.074 301.367 513.41 301.367 528.574C301.367 543.738 289.031 556.074 273.867 556.074ZM135.041 516.074C128.148 516.074 122.541 521.681 122.541 528.574C122.541 535.467 128.148 541.074 135.041 541.074H273.867C280.76 541.074 286.367 535.467 286.367 528.574C286.367 521.681 280.76 516.074 273.867 516.074H135.041Z" fill="#E5EAFA"/>
<path d="M273.867 548.572H135.041C123.995 548.572 115.041 557.526 115.041 568.572C115.041 579.618 123.995 588.572 135.041 588.572H273.867C284.913 588.572 293.867 579.618 293.867 568.572C293.867 557.526 284.913 548.572 273.867 548.572Z" fill="#84714F"/>
<path d="M273.867 596.072H135.041C119.877 596.072 107.541 583.736 107.541 568.572C107.541 553.408 119.877 541.072 135.041 541.072H273.867C289.031 541.072 301.367 553.408 301.367 568.572C301.367 583.736 289.031 596.072 273.867 596.072ZM135.041 556.072C128.148 556.072 122.541 561.679 122.541 568.572C122.541 575.465 128.148 581.072 135.041 581.072H273.867C280.76 581.072 286.367 575.465 286.367 568.572C286.367 561.679 280.76 556.072 273.867 556.072H135.041Z" fill="#E5EAFA"/>
<path d="M271.188 588.572H137.721C126.675 588.572 117.721 597.526 117.721 608.572C117.721 619.618 126.675 628.572 137.721 628.572H271.188C282.234 628.572 291.188 619.618 291.188 608.572C291.188 597.526 282.234 588.572 271.188 588.572Z" fill="#84714F"/>
<path d="M271.188 636.072H137.721C122.557 636.072 110.221 623.736 110.221 608.572C110.221 593.408 122.557 581.072 137.721 581.072H271.188C286.352 581.072 298.688 593.408 298.688 608.572C298.688 623.736 286.352 636.072 271.188 636.072ZM137.721 596.072C130.828 596.072 125.221 601.679 125.221 608.572C125.221 615.465 130.828 621.072 137.721 621.072H271.188C278.081 621.072 283.688 615.465 283.688 608.572C283.688 601.679 278.081 596.072 271.188 596.072H137.721Z" fill="#E5EAFA"/>
<path d="M234.91 668.572H173.999C162.999 668.572 153.999 659.572 153.999 648.572C153.999 637.572 153.999 628.572 153.999 628.572H254.91C254.91 628.572 254.91 637.572 254.91 648.572C254.91 659.572 245.91 668.572 234.91 668.572Z" fill="#84714F"/>
<path d="M234.91 676.072H173.999C158.835 676.072 146.499 663.736 146.499 648.572V628.572C146.499 624.43 149.857 621.072 153.999 621.072H254.91C259.052 621.072 262.41 624.43 262.41 628.572V648.572C262.41 663.736 250.074 676.072 234.91 676.072ZM161.499 636.072V648.572C161.499 655.465 167.106 661.072 173.999 661.072H234.91C241.803 661.072 247.41 655.465 247.41 648.572V636.072H161.499Z" fill="#E5EAFA"/>
<path d="M245.041 516.074H163.868C160.212 516.074 157.088 513.437 156.474 509.833L109.063 231.367C108.407 227.516 110.817 223.807 114.602 222.841C118.387 221.876 122.279 223.976 123.549 227.669C126.306 235.687 140.01 244.21 159.975 244.21C181.767 244.21 196.954 233.805 196.954 224.467C196.954 220.325 200.312 216.967 204.454 216.967C208.596 216.967 211.954 220.325 211.954 224.467C211.954 233.805 227.141 244.21 248.933 244.21C268.898 244.21 282.602 235.688 285.359 227.669C286.629 223.976 290.52 221.874 294.306 222.841C298.091 223.807 300.5 227.516 299.845 231.367L252.434 509.833C251.82 513.437 248.697 516.074 245.04 516.074H245.041ZM170.199 501.074H238.71L281.136 251.885C272.244 256.515 261.029 259.21 248.933 259.21C229.86 259.21 213.491 252.674 204.454 242.699C195.417 252.675 179.048 259.21 159.975 259.21C147.879 259.21 136.664 256.515 127.772 251.885L170.198 501.073L170.199 501.074Z" fill="#E5EAFA"/>
</g>
<defs>
<clipPath id="clip0_2439_128">
<rect width="408.909" height="676.072" fill="white"/>
</clipPath>
</defs>
</svg>
